<svg width="66" height="66" viewBox="0 0 66 66" fill="none" xmlns="http://www.w3.org/2000/svg">
<path d="M63.5233 10.6099L60.2686 13.8646L57.1226 17.0106L53.1162 21.017C52.0292 21.0893 50.9393 20.9285 49.9195 20.5453C48.8998 20.1621 47.9737 19.5653 47.2034 18.795C46.433 18.0246 45.8363 17.0986 45.453 16.0788C45.0698 15.059 44.909 13.9691 44.9813 12.8821L48.9877 8.87571L52.1338 5.72969L55.3884 2.47506C55.4899 2.37327 55.5469 2.23537 55.5469 2.0916C55.5469 1.94783 55.4899 1.80992 55.3884 1.70813C55.3497 1.66941 55.3034 1.64583 55.2579 1.62142L55.2587 1.62058L55.2503 1.61721C55.2228 1.60272 55.194 1.59061 55.1644 1.58101C52.848 0.54144 50.3381 0.00268628 47.799 0C37.7481 0 29.5997 8.14834 29.5997 18.1993C29.5997 20.1187 29.9011 21.9666 30.4517 23.7034L11.472 42.6839C5.12018 42.7866 0 47.9598 0 54.3369C0 60.7771 5.22205 65.9992 11.6623 65.9992C18.0385 65.9992 23.2126 60.8781 23.3153 54.5263L42.2958 35.5458C44.0761 36.1108 45.9329 36.3981 47.8007 36.3977C57.8517 36.3977 66 28.2494 66 18.1984C66 15.5735 65.4225 13.0917 64.4198 10.8389C64.4094 10.8044 64.3953 10.7711 64.3777 10.7396L64.3592 10.6958L64.3533 10.7017C64.3331 10.6706 64.3188 10.636 64.291 10.6083C64.1889 10.5069 64.0507 10.4502 63.9068 10.4505C63.7629 10.4508 63.625 10.5081 63.5233 10.6099ZM16.4811 54.3369C16.4811 55.615 15.9733 56.8408 15.0695 57.7446C14.1658 58.6484 12.94 59.1561 11.6618 59.1561C10.3837 59.1561 9.15792 58.6484 8.25414 57.7446C7.35036 56.8408 6.84263 55.615 6.84263 54.3369C6.84263 53.0588 7.35036 51.833 8.25414 50.9292C9.15792 50.0254 10.3837 49.5177 11.6618 49.5177C12.94 49.5177 14.1658 50.0254 15.0695 50.9292C15.9733 51.833 16.4811 53.0588 16.4811 54.3369Z" fill="white"/>
</svg>
