<svg width="63" height="58" viewBox="0 0 63 58" fill="none" xmlns="http://www.w3.org/2000/svg">
<path d="M21.25 4.25C23.2896 4.25 25.2834 4.85482 26.9793 5.98797C28.6752 7.12112 29.997 8.73171 30.7775 10.6161C31.558 12.5004 31.7623 14.5739 31.3643 16.5744C30.9664 18.5748 29.9843 20.4123 28.542 21.8545C27.0998 23.2968 25.2623 24.2789 23.2619 24.6768C21.2614 25.0748 19.1879 24.8705 17.3036 24.09C15.4192 23.3095 13.8086 21.9877 12.6755 20.2918C11.5423 18.5959 10.9375 16.6021 10.9375 14.5625C10.9375 11.8275 12.024 9.20443 13.958 7.27046C15.8919 5.33649 18.515 4.25 21.25 4.25ZM21.25 0.125C18.3945 0.125 15.6032 0.971745 13.229 2.55816C10.8547 4.14457 9.00423 6.3994 7.91149 9.03751C6.81875 11.6756 6.53284 14.5785 7.08991 17.3791C7.64699 20.1797 9.02203 22.7522 11.0411 24.7714C13.0603 26.7905 15.6328 28.1655 18.4334 28.7226C21.234 29.2797 24.1369 28.9937 26.775 27.901C29.4131 26.8083 31.6679 24.9578 33.2543 22.5835C34.8408 20.2093 35.6875 17.418 35.6875 14.5625C35.6875 10.7334 34.1664 7.0612 31.4589 4.35365C28.7513 1.64609 25.0791 0.125 21.25 0.125ZM41.875 57.875H37.75V47.5625C37.75 44.8275 36.6635 42.2044 34.7295 40.2705C32.7956 38.3365 30.1725 37.25 27.4375 37.25H15.0625C12.3275 37.25 9.70443 38.3365 7.77046 40.2705C5.83649 42.2044 4.75 44.8275 4.75 47.5625V57.875H0.625V47.5625C0.625 43.7334 2.14609 40.0612 4.85365 37.3536C7.5612 34.6461 11.2334 33.125 15.0625 33.125H27.4375C31.2666 33.125 34.9388 34.6461 37.6464 37.3536C40.3539 40.0612 41.875 43.7334 41.875 47.5625V57.875ZM41.875 4.25H62.5V8.375H41.875V4.25ZM41.875 14.5625H62.5V18.6875H41.875V14.5625ZM41.875 24.875H56.3125V29H41.875V24.875Z" fill="white"/>
</svg>
