<svg width="66" height="66" viewBox="0 0 66 66" fill="none" xmlns="http://www.w3.org/2000/svg">
<g clip-path="url(#clip0_7_206)">
<path d="M51.3333 49H11V8.66667H35.2366L38.9033 5H11C10.0275 5 9.09489 5.38631 8.40725 6.07394C7.71962 6.76157 7.33331 7.69421 7.33331 8.66667V49C7.33331 49.9725 7.71962 50.9051 8.40725 51.5927C9.09489 52.2804 10.0275 52.6667 11 52.6667H51.3333C52.3058 52.6667 53.2384 52.2804 53.926 51.5927C54.6137 50.9051 55 49.9725 55 49V21.5L51.3333 25.1667V49Z" fill="white"/>
<path d="M61.4716 4.70667L55.2933 -1.47166C55.0191 -1.7466 54.6934 -1.96475 54.3347 -2.11359C53.9761 -2.26243 53.5916 -2.33904 53.2033 -2.33904C52.815 -2.33904 52.4305 -2.26243 52.0719 -2.11359C51.7132 -1.96475 51.3875 -1.7466 51.1133 -1.47166L25.9783 23.81L23.9433 32.6283C23.8566 33.0558 23.8657 33.4972 23.97 33.9207C24.0743 34.3442 24.2711 34.7393 24.5463 35.0777C24.8216 35.416 25.1684 35.6892 25.5618 35.8775C25.9552 36.0658 26.3855 36.1645 26.8216 36.1667C27.0471 36.1915 27.2745 36.1915 27.5 36.1667L36.3916 34.205L61.4716 8.88667C61.7466 8.61248 61.9647 8.28673 62.1136 7.92809C62.2624 7.56946 62.339 7.18497 62.339 6.79667C62.339 6.40838 62.2624 6.02389 62.1136 5.66525C61.9647 5.30661 61.7466 4.98087 61.4716 4.70667ZM34.485 30.8133L27.775 32.2983L29.3333 25.6433L48.2533 6.59501L53.4233 11.765L34.485 30.8133ZM55.495 9.69334L50.325 4.52334L53.1666 1.62667L58.3733 6.83334L55.495 9.69334Z" fill="white"/>
</g>
<defs>
<clipPath id="clip0_7_206">
<rect width="66" height="66" fill="white"/>
</clipPath>
</defs>
</svg>
