<svg width="67" height="66" viewBox="0 0 67 66" fill="none" xmlns="http://www.w3.org/2000/svg">
<path d="M19.75 22C19.75 21.2707 20.0397 20.5712 20.5555 20.0555C21.0712 19.5397 21.7707 19.25 22.5 19.25H44.5C45.2293 19.25 45.9288 19.5397 46.4445 20.0555C46.9603 20.5712 47.25 21.2707 47.25 22C47.25 22.7293 46.9603 23.4288 46.4445 23.9445C45.9288 24.4603 45.2293 24.75 44.5 24.75H22.5C21.7707 24.75 21.0712 24.4603 20.5555 23.9445C20.0397 23.4288 19.75 22.7293 19.75 22ZM22.5 35.75H44.5C45.2293 35.75 45.9288 35.4603 46.4445 34.9445C46.9603 34.4288 47.25 33.7293 47.25 33C47.25 32.2707 46.9603 31.5712 46.4445 31.0555C45.9288 30.5397 45.2293 30.25 44.5 30.25H22.5C21.7707 30.25 21.0712 30.5397 20.5555 31.0555C20.0397 31.5712 19.75 32.2707 19.75 33C19.75 33.7293 20.0397 34.4288 20.5555 34.9445C21.0712 35.4603 21.7707 35.75 22.5 35.75ZM33.5 41.25H22.5C21.7707 41.25 21.0712 41.5397 20.5555 42.0555C20.0397 42.5712 19.75 43.2707 19.75 44C19.75 44.7293 20.0397 45.4288 20.5555 45.9445C21.0712 46.4603 21.7707 46.75 22.5 46.75H33.5C34.2293 46.75 34.9288 46.4603 35.4445 45.9445C35.9603 45.4288 36.25 44.7293 36.25 44C36.25 43.2707 35.9603 42.5712 35.4445 42.0555C34.9288 41.5397 34.2293 41.25 33.5 41.25ZM66.5 5.5V42.8656C66.5006 43.5877 66.3582 44.3028 66.0809 44.9695C65.8036 45.6362 65.3969 46.2414 64.8844 46.75L47.25 64.3844C46.7414 64.8969 46.1362 65.3036 45.4695 65.5809C44.8028 65.8582 44.0877 66.0006 43.3656 66H6C4.54131 66 3.14236 65.4205 2.11091 64.3891C1.07946 63.3576 0.5 61.9587 0.5 60.5V5.5C0.5 4.04131 1.07946 2.64236 2.11091 1.61091C3.14236 0.579462 4.54131 0 6 0H61C62.4587 0 63.8576 0.579462 64.8891 1.61091C65.9205 2.64236 66.5 4.04131 66.5 5.5ZM6 60.5H41.75V44C41.75 43.2707 42.0397 42.5712 42.5555 42.0555C43.0712 41.5397 43.7707 41.25 44.5 41.25H61V5.5H6V60.5ZM47.25 46.75V56.6156L57.1156 46.75H47.25Z" fill="white"/>
</svg>
