<svg width="51" height="50" viewBox="0 0 51 50" fill="none" xmlns="http://www.w3.org/2000/svg">
<path opacity="0.2" d="M27.562 47.4375V39.1875C27.562 35.9054 28.8658 32.7578 31.1866 30.4371C33.5073 28.1163 36.655 26.8125 39.937 26.8125H48.187C46.1245 33 33.7495 45.375 27.562 47.4375Z" fill="#CCCCCC"/>
<path d="M50.2237 27.1219C50.245 27.0202 50.2537 26.9163 50.2495 26.8125V14.4375C50.2495 10.6084 48.7284 6.9362 46.0209 4.22865C43.3133 1.52109 39.6411 0 35.812 0H15.187C11.3579 0 7.68571 1.52109 4.97816 4.22865C2.2706 6.9362 0.749512 10.6084 0.749512 14.4375V35.0625C0.749512 38.8916 2.2706 42.5638 4.97816 45.2714C7.68571 47.9789 11.3579 49.5 15.187 49.5H27.9229L28.2065 49.4227C34.987 47.1539 47.8776 34.2633 50.1464 27.4828L50.2237 27.1992V27.1219ZM4.87451 35.0625V14.4375C4.87451 11.7025 5.961 9.07943 7.89497 7.14546C9.82894 5.21149 12.452 4.125 15.187 4.125H35.812C38.5471 4.125 41.1701 5.21149 43.104 7.14546C45.038 9.07943 46.1245 11.7025 46.1245 14.4375V24.75H39.937C36.1079 24.75 32.4357 26.2711 29.7282 28.9786C27.0206 31.6862 25.4995 35.3584 25.4995 39.1875V45.375H15.187C12.452 45.375 9.82894 44.2885 7.89497 42.3545C5.961 40.4206 4.87451 37.7975 4.87451 35.0625ZM29.6245 44.1117V39.1875C29.6245 36.4525 30.711 33.8294 32.645 31.8955C34.5789 29.9615 37.202 28.875 39.937 28.875H44.8612C41.7417 33.9023 34.6519 40.9922 29.6245 44.1117Z" fill="white"/>
</svg>
