<svg width="70" height="65" viewBox="0 0 70 65" fill="none" xmlns="http://www.w3.org/2000/svg">
<path d="M0.829314 58.4243L31.48 2.41361C31.8252 1.78154 32.3342 1.25407 32.9535 0.88659C33.5729 0.519115 34.2798 0.325195 35 0.325195C35.7202 0.325195 36.4271 0.519115 37.0464 0.88659C37.6658 1.25407 38.1748 1.78154 38.52 2.41361L69.1706 58.4243C69.5044 59.0342 69.6734 59.7207 69.6609 60.4159C69.6485 61.111 69.4551 61.791 69.0997 62.3886C68.7444 62.9862 68.2394 63.4809 67.6346 63.8239C67.0297 64.1668 66.3459 64.3462 65.6507 64.3443H4.34931C3.65402 64.3462 2.97024 64.1668 2.36541 63.8239C1.76058 63.4809 1.25558 62.9862 0.900236 62.3886C0.544888 61.791 0.351456 61.111 0.339019 60.4159C0.326582 59.7207 0.495569 59.0342 0.829314 58.4243ZM39.2666 37.667L41.416 24.7709C41.4795 24.3891 41.4591 23.998 41.3562 23.6248C41.2533 23.2517 41.0704 22.9054 40.8202 22.61C40.57 22.3146 40.2585 22.0773 39.9073 21.9144C39.5562 21.7516 39.1737 21.6671 38.7866 21.6669H31.2133C30.8262 21.6671 30.4438 21.7516 30.0926 21.9144C29.7415 22.0773 29.43 22.3146 29.1798 22.61C28.9296 22.9054 28.7467 23.2517 28.6438 23.6248C28.5409 23.998 28.5205 24.3891 28.584 24.7709L30.7333 37.667H39.2666ZM40.8666 47.8003C40.8666 46.2443 40.2486 44.7521 39.1483 43.6519C38.0481 42.5517 36.5559 41.9336 35 41.9336C33.444 41.9336 31.9518 42.5517 30.8516 43.6519C29.7514 44.7521 29.1333 46.2443 29.1333 47.8003C29.1333 49.3562 29.7514 50.8484 30.8516 51.9486C31.9518 53.0489 33.444 53.667 35 53.667C36.5559 53.667 38.0481 53.0489 39.1483 51.9486C40.2486 50.8484 40.8666 49.3562 40.8666 47.8003Z" fill="#F46767"/>
</svg>
