<svg width="67" height="66" viewBox="0 0 67 66" fill="none" xmlns="http://www.w3.org/2000/svg">
<path d="M33.4897 41.25C39.4101 41.25 44.1219 35.2481 44.1219 27.8438C44.1219 20.4394 39.3224 14.4375 33.4897 14.4375C27.5693 14.4375 22.8575 20.4394 22.8575 27.8438C22.7647 35.243 27.5703 41.25 33.4897 41.25ZM38.6459 45.375H28.3541C20.2588 45.375 13.7 53.0707 13.7 62.5582C13.7 64.466 15.0097 66 16.6287 66H50.3712C51.9903 66 53.3 64.466 53.3 62.5582C53.3 53.0707 46.7412 45.375 38.6459 45.375ZM53.3 20.625C57.8561 20.625 61.55 16.0076 61.55 10.3125C61.55 4.61742 57.8581 0 53.3 0C48.7439 0 45.05 4.61742 45.05 10.3125C45.05 16.0076 48.7419 20.625 53.3 20.625ZM19.4647 27.8438C19.4647 27.1413 19.566 26.4735 19.6306 25.7929C18.5056 25.0207 17.2681 24.75 15.9584 24.75H9.58325C4.56725 24.75 0.5 30.1383 0.5 36.777C0.5 38.1047 1.31335 39.1875 2.31706 39.1875H22.8905C20.7847 36.1195 19.4647 32.1879 19.4647 27.8438V27.8438ZM13.7 20.625C18.2561 20.625 21.95 16.0076 21.95 10.3125C21.95 4.61742 18.2581 0 13.7 0C9.14394 0 5.45 4.61742 5.45 10.3125C5.45 16.0076 9.14394 20.625 13.7 20.625ZM57.4147 24.75H51.0374C49.7174 24.75 48.4717 25.1415 47.3394 25.8122C47.4013 26.4902 47.5044 27.1477 47.5044 27.8438C47.5044 32.1892 46.1864 36.1208 44.0848 39.1875H64.6788C65.6853 39.1875 66.5 38.1047 66.5 36.777C66.5 30.1383 62.4369 24.75 57.4147 24.75V24.75Z" fill="white"/>
</svg>
