<svg width="24" height="24" viewBox="0 0 24 24" fill="none" xmlns="http://www.w3.org/2000/svg">
<path d="M24 12.9231C24 14.4231 23.6823 15.8558 23.0469 17.2212C22.4115 18.5865 21.5573 19.7644 20.4844 20.7548C19.4115 21.7452 18.1354 22.5337 16.6562 23.1202C15.1771 23.7067 13.625 24 12 24C10.375 24 8.82292 23.7067 7.34375 23.1202C5.86458 22.5337 4.58854 21.7452 3.51562 20.7548C2.44271 19.7644 1.58854 18.5865 0.953125 17.2212C0.317708 15.8558 0 14.4231 0 12.9231C0 11.1731 0.419271 9.52404 1.25781 7.97596C2.09635 6.42788 3.27604 5.12981 4.79688 4.08173C5.24479 3.77404 5.74219 3.65385 6.28906 3.72115C6.83594 3.78846 7.27083 4.02885 7.59375 4.44231C7.92708 4.84615 8.05469 5.30048 7.97656 5.80529C7.89844 6.3101 7.64062 6.71635 7.20312 7.02404C6.18229 7.73558 5.39323 8.60577 4.83594 9.63462C4.27865 10.6635 4 11.7596 4 12.9231C4 13.9231 4.21094 14.8774 4.63281 15.7861C5.05469 16.6947 5.625 17.4808 6.34375 18.1442C7.0625 18.8077 7.91406 19.3341 8.89844 19.7236C9.88281 20.113 10.9167 20.3077 12 20.3077C13.0833 20.3077 14.1172 20.113 15.1016 19.7236C16.0859 19.3341 16.9375 18.8077 17.6562 18.1442C18.375 17.4808 18.9453 16.6947 19.3672 15.7861C19.7891 14.8774 20 13.9231 20 12.9231C20 11.7596 19.7214 10.6635 19.1641 9.63462C18.6068 8.60577 17.8177 7.73558 16.7969 7.02404C16.3594 6.71635 16.1016 6.3101 16.0234 5.80529C15.9453 5.30048 16.0729 4.84615 16.4062 4.44231C16.7292 4.02885 17.1667 3.78846 17.7188 3.72115C18.2708 3.65385 18.7656 3.77404 19.2031 4.08173C20.724 5.12981 21.9036 6.42788 22.7422 7.97596C23.5807 9.52404 24 11.1731 24 12.9231ZM14 1.84615V11.0769C14 11.5769 13.8021 12.0096 13.4062 12.375C13.0104 12.7404 12.5417 12.9231 12 12.9231C11.4583 12.9231 10.9896 12.7404 10.5938 12.375C10.1979 12.0096 10 11.5769 10 11.0769V1.84615C10 1.34615 10.1979 0.913462 10.5938 0.548077C10.9896 0.182692 11.4583 0 12 0C12.5417 0 13.0104 0.182692 13.4062 0.548077C13.8021 0.913462 14 1.34615 14 1.84615Z" fill="#FF5552"/>
</svg>
