<svg width="67" height="67" viewBox="0 0 67 67" fill="none" xmlns="http://www.w3.org/2000/svg">
<path d="M3.833 0L0.5 3.333L6.37146 13.4868L10.1792 12.9284L33.4213 36.1731L31.4388 38.0769C30.4234 39.0923 30.4234 40.6306 31.4388 41.646L32.4694 42.6792C33.4848 43.6945 35.0383 43.6945 35.7998 42.6792L38.8155 45.6923C38.5617 47.2154 38.8155 49.0253 40.0848 50.2945L53.8077 63.9388C56.6 66.7311 61.1692 66.7311 63.9615 63.9388C67.2615 60.8926 67.2311 56.3386 64.4388 53.5463L50.7945 39.8208C49.5253 38.5516 47.7154 38.0439 46.1923 38.5516L42.8593 35.5385C43.6208 34.5231 43.6208 32.9695 42.8593 32.2055L41.9074 31.2561C41.6766 31.0154 41.3996 30.8239 41.0929 30.6931C40.7862 30.5623 40.4563 30.4949 40.1228 30.4949C39.7894 30.4949 39.4595 30.5623 39.1528 30.6931C38.8461 30.8239 38.5691 31.0154 38.3383 31.2561L36.6731 32.9213L13.4309 9.67915L13.9843 5.87146L3.83046 0L3.833 0ZM53.333 0.0786923C48.3246 -0.337615 41.684 2.98269 38.5769 5.86892C34.754 9.69185 35.3785 14.6901 38.417 19.5157L33.0253 24.9099L36.833 29.1923C38.8638 27.4154 41.8592 27.4154 43.8899 29.1923L44.9231 30.2229L45.1617 30.4615L47.3828 28.2404C51.9724 30.9388 56.7498 31.3272 60.3925 27.6845C63.9463 24.3845 67.7997 16.2462 66.0228 11.4231L58.8846 18.7998C57.8692 19.8152 56.3309 19.8152 55.3155 18.7998L47.9362 11.4231C47.6956 11.1923 47.5041 10.9153 47.3733 10.6086C47.2425 10.3019 47.1751 9.97195 47.1751 9.63854C47.1751 9.30513 47.2425 8.97517 47.3733 8.66849C47.5041 8.36182 47.6956 8.08476 47.9362 7.854L55.3181 0.477231C54.6835 0.253846 54.0488 0.139615 53.333 0.0786923ZM25.4099 31.7308L16.2055 40.9327C15.2164 40.7129 14.2055 40.6065 13.1923 40.6154C6.08462 40.6154 0.5 46.2 0.5 53.3077C0.5 60.4154 6.08462 66 13.1923 66C20.3 66 25.8846 60.4154 25.8846 53.3077C25.8846 52.0055 25.679 50.754 25.3287 49.5787L30.7229 44.1845L29.9309 43.1538C27.9002 41.1231 27.9154 38.0465 29.6923 36.0132L25.4074 31.7308H25.4099ZM45.083 43.3138C45.4003 43.3138 45.6998 43.3747 45.9537 43.6311L60.9484 58.6232C61.4561 59.1309 61.4561 59.9382 60.9484 60.4458C60.4407 60.9535 59.6284 60.9535 59.1207 60.4458L44.1311 45.4537C43.6234 44.946 43.6234 44.1388 44.1311 43.6311C44.3849 43.3772 44.7657 43.3138 45.083 43.3138ZM14.9388 46.7204L19.7771 51.5612L18.0306 58.1435L11.4484 59.8899L6.60754 55.0491L8.354 48.4668L14.9388 46.7204Z" fill="white"/>
</svg>
