<svg width="66" height="66" viewBox="0 0 66 66" fill="none" xmlns="http://www.w3.org/2000/svg">
<path d="M65.6783 34.9658L61.7881 28.8296L64.0956 21.9431C64.2478 21.4877 64.2379 20.9936 64.0675 20.5446C63.8971 20.0956 63.5768 19.7193 63.1608 19.4795L56.8659 15.8505L55.7083 8.67975C55.6304 8.20565 55.3915 7.77286 55.0319 7.45427C54.6723 7.13567 54.2138 6.95074 53.7338 6.9306L46.4734 6.64633L42.1171 0.832876C41.8294 0.448166 41.4171 0.17512 40.9506 0.0602463C40.4841 -0.0546275 39.9922 -0.00422363 39.5587 0.202872L33 3.32216L26.4387 0.200311C26.0046 -0.00455231 25.5131 -0.0534961 25.0471 0.0617277C24.581 0.176951 24.169 0.449299 23.8803 0.832876L19.5241 6.64633L12.2637 6.9306C11.784 6.94978 11.3257 7.13411 10.9663 7.4524C10.607 7.77068 10.3687 8.20336 10.2917 8.67719L9.13412 15.848L2.8392 19.4769C2.42272 19.7164 2.10186 20.0925 1.93103 20.5415C1.76019 20.9905 1.7499 21.4848 1.90188 21.9406L4.20934 28.8271L0.32175 34.9658C0.0653014 35.3721 -0.04291 35.8545 0.0154236 36.3315C0.0737572 36.8084 0.295054 37.2506 0.641874 37.5831L5.88422 42.6103L5.2952 49.8477C5.25601 50.3266 5.38347 50.8043 5.65601 51.2001C5.92855 51.5958 6.32942 51.8853 6.79081 52.0194L13.7695 54.0298L16.6097 60.7165C16.7961 61.1597 17.1307 61.5243 17.5563 61.7481C17.9819 61.9719 18.4719 62.0408 18.9427 61.9433L26.0623 60.4835L31.6811 65.0856C32.0627 65.3955 32.5313 65.5568 33 65.5568C33.4687 65.5568 33.9348 65.3955 34.3189 65.0856L39.9377 60.4835L47.0573 61.9433C48.0228 62.1481 49.0036 61.6283 49.3903 60.7165L52.2305 54.0298L59.2092 52.0194C59.6708 51.8857 60.072 51.5963 60.3446 51.2005C60.6172 50.8047 60.7445 50.3267 60.7048 49.8477L60.1158 42.6103L65.3581 37.5831C65.7049 37.2506 65.9262 36.8084 65.9846 36.3315C66.0429 35.8545 65.9347 35.3721 65.6783 34.9658ZM48.051 24.9497L33.4763 46.7847C32.9257 47.5991 32.0729 48.1446 31.2252 48.1446C30.3801 48.1446 29.4351 47.6709 28.8333 47.0665L18.1334 36.195C17.7827 35.8354 17.5864 35.3529 17.5864 34.8505C17.5864 34.3482 17.7827 33.8657 18.1334 33.506L20.7738 30.817C20.9468 30.643 21.1526 30.5049 21.3791 30.4107C21.6057 30.3165 21.8486 30.268 22.094 30.268C22.3394 30.268 22.5823 30.3165 22.8089 30.4107C23.0355 30.5049 23.2412 30.643 23.4142 30.817L30.3775 37.8904L41.861 20.6857C41.9971 20.4805 42.1728 20.3045 42.3776 20.1679C42.5825 20.0314 42.8125 19.937 43.0542 19.8902C43.296 19.8435 43.5446 19.8454 43.7856 19.8958C44.0266 19.9462 44.2551 20.0441 44.4579 20.1837L47.5541 22.3119C48.4069 22.9009 48.6272 24.0867 48.051 24.9497Z" fill="white"/>
</svg>
