<svg width="66" height="54" viewBox="0 0 66 54" fill="none" xmlns="http://www.w3.org/2000/svg">
<path d="M39.0349 43.2109L23.0876 35.7277L24.6675 33.5064L40.6117 40.9896L39.0349 43.2109Z" fill="#383B41"/>
<path d="M55.307 47.4715C59.9125 43.9373 62.831 38.972 62.831 33.4301C62.831 26.6022 58.4172 20.4437 51.5542 16.9849L59.2433 6.17105L58.0357 5.60548L59.9321 2.9259L54.9605 0.594055L53.0599 3.26944L51.7883 2.67286L32.8855 29.2776L34.5366 30.0518L32.1925 33.3464L36.3464 35.2953L38.6915 31.999L40.3404 32.7732L48.2893 21.5882C50.74 22.8573 52.7576 24.6075 54.1561 26.6773C55.5545 28.7471 56.2887 31.0698 56.2908 33.431C56.2908 41.1731 48.5337 47.4724 39.0039 47.4724H25.0759V52.7888H64.2819V47.4724H55.309L55.307 47.4715ZM20.5043 6.59V2.36955H21.1437L21.1344 1.35737H15.3089L15.3182 2.36955H16.005V6.59H11.6583V2.36955H12.2956L12.2884 1.35737H6.45769L6.46903 2.36955H7.15584V6.59H0.773438V27.7308H26.8321V6.59H20.5064H20.5043ZM24.6252 25.9411H2.97722V8.37974H7.15481V21.8865C7.15481 22.9088 8.18297 23.7391 9.42356 23.7391C10.6662 23.7349 11.6572 22.9071 11.6572 21.8865V8.37974H16.004V21.8865C16.004 22.9088 17.0332 23.7391 18.2737 23.7391C19.5164 23.7349 20.5074 22.9071 20.5054 21.8865V8.37974H24.6252V25.9411Z" fill="white"/>
</svg>
