<svg width="25" height="24" viewBox="0 0 25 24" fill="none" xmlns="http://www.w3.org/2000/svg">
<path d="M14.7514 24H10.2493C9.96727 24 9.69364 23.9065 9.47386 23.735C9.25407 23.5634 9.10133 23.3241 9.04096 23.0568L8.53757 20.796C7.86605 20.5105 7.22929 20.1535 6.63904 19.7316L4.36698 20.4336C4.09805 20.5168 3.80787 20.5083 3.54463 20.4094C3.2814 20.3105 3.06095 20.1272 2.91989 19.89L0.663906 16.1088C0.524324 15.8714 0.471928 15.595 0.515291 15.3249C0.558655 15.0548 0.695209 14.807 0.902614 14.622L2.6651 13.062C2.58495 12.3553 2.58495 11.6423 2.6651 10.9356L0.902614 9.3792C0.694915 9.19413 0.558175 8.94609 0.514805 8.67574C0.471435 8.40539 0.524007 8.12876 0.663906 7.8912L2.91494 4.1076C3.056 3.87038 3.27645 3.68711 3.53969 3.58823C3.80292 3.48934 4.0931 3.48079 4.36203 3.564L6.63409 4.266C6.93588 4.05 7.25003 3.8484 7.57408 3.666C7.887 3.4956 8.20857 3.3408 8.53757 3.2028L9.0422 0.9444C9.10227 0.677037 9.25473 0.437625 9.47428 0.265859C9.69384 0.0940918 9.96731 0.000287959 10.2493 0H14.7514C15.0335 0.000287959 15.3069 0.0940918 15.5265 0.265859C15.746 0.437625 15.8985 0.677037 15.9586 0.9444L16.4681 3.204C17.1388 3.49112 17.7754 3.84801 18.3667 4.2684L20.64 3.5664C20.9087 3.4835 21.1986 3.4922 21.4616 3.59107C21.7246 3.68994 21.9448 3.87304 22.0858 4.11L24.3369 7.8936C24.6238 8.382 24.5249 9 24.0981 9.3804L22.3357 10.9404C22.4158 11.6471 22.4158 12.3601 22.3357 13.0668L24.0981 14.6268C24.5249 15.0084 24.6238 15.6252 24.3369 16.1136L22.0858 19.8972C21.9448 20.1344 21.7243 20.3177 21.4611 20.4166C21.1978 20.5155 20.9077 20.524 20.6387 20.4408L18.3667 19.7388C17.7769 20.1604 17.1405 20.517 16.4694 20.802L15.9586 23.0568C15.8982 23.3239 15.7457 23.5631 15.5261 23.7346C15.3066 23.9061 15.0333 23.9998 14.7514 24ZM12.4954 7.2C11.1833 7.2 9.92495 7.70571 8.99715 8.60589C8.06934 9.50606 7.54811 10.727 7.54811 12C7.54811 13.273 8.06934 14.4939 8.99715 15.3941C9.92495 16.2943 11.1833 16.8 12.4954 16.8C13.8075 16.8 15.0659 16.2943 15.9937 15.3941C16.9215 14.4939 17.4428 13.273 17.4428 12C17.4428 10.727 16.9215 9.50606 15.9937 8.60589C15.0659 7.70571 13.8075 7.2 12.4954 7.2Z" fill="white"/>
</svg>
