<svg width="66" height="66" viewBox="0 0 66 66" fill="none" xmlns="http://www.w3.org/2000/svg">
<path d="M60.5344 38.775L56.693 33.6703C56.7187 33.2062 56.693 32.7164 56.693 32.3554L60.5344 27.225C60.7254 26.9753 60.8552 26.6843 60.9134 26.3754C60.9716 26.0664 60.9566 25.7481 60.8695 25.4461C60.2198 23.0692 59.2758 20.7827 58.0594 18.6398C57.9024 18.3676 57.6868 18.1338 57.4281 17.9554C57.1695 17.777 56.8743 17.6585 56.5641 17.6086L50.2477 16.7062L49.2937 15.7523L48.3914 9.4359C48.3414 9.12568 48.223 8.8305 48.0446 8.57184C47.8662 8.31317 47.6324 8.09753 47.3602 7.94059C45.2172 6.72419 42.9308 5.78017 40.5539 5.13043C40.2518 5.04336 39.9335 5.02832 39.6246 5.08653C39.3157 5.14473 39.0247 5.27456 38.775 5.46559L33.6703 9.28121H32.3297L27.225 5.46559C26.9753 5.27456 26.6843 5.14473 26.3754 5.08653C26.0665 5.02832 25.7482 5.04336 25.4461 5.13043C23.0692 5.78017 20.7828 6.72419 18.6398 7.94059C18.3676 8.09753 18.1338 8.31317 17.9554 8.57184C17.777 8.8305 17.6586 9.12568 17.6086 9.4359L16.7063 15.7523L15.7523 16.7062L9.43594 17.6086C9.12572 17.6585 8.83054 17.777 8.57188 17.9554C8.31321 18.1338 8.09757 18.3676 7.94062 18.6398C6.72423 20.7827 5.78021 23.0692 5.13047 25.4461C5.0434 25.7481 5.02836 26.0664 5.08656 26.3754C5.14477 26.6843 5.2746 26.9753 5.46563 27.225L9.30703 32.3296V33.6445L5.46563 38.775C5.2746 39.0246 5.14477 39.3156 5.08656 39.6246C5.02836 39.9335 5.0434 40.2518 5.13047 40.5539C5.78021 42.9308 6.72423 45.2172 7.94062 47.3601C8.09757 47.6323 8.31321 47.8661 8.57188 48.0445C8.83054 48.2229 9.12572 48.3414 9.43594 48.3914L15.7523 49.2937L16.7063 50.2476L17.6086 56.564C17.6586 56.8742 17.777 57.1694 17.9554 57.4281C18.1338 57.6867 18.3676 57.9024 18.6398 58.0593C20.7828 59.2757 23.0692 60.2198 25.4461 60.8695C25.6221 60.9205 25.8043 60.9465 25.9875 60.9468C26.4347 60.9527 26.8707 60.8073 27.225 60.5343L32.3297 56.7187H33.6703L38.775 60.5343C39.0247 60.7254 39.3157 60.8552 39.6246 60.9134C39.9335 60.9716 40.2518 60.9566 40.5539 60.8695C42.9308 60.2198 45.2172 59.2757 47.3602 58.0593C47.6324 57.9024 47.8662 57.6867 48.0446 57.4281C48.223 57.1694 48.3414 56.8742 48.3914 56.564L49.2937 50.2218C49.6031 49.9125 49.9641 49.5773 50.2219 49.2937L56.5641 48.3914C56.8743 48.3414 57.1695 48.2229 57.4281 48.0445C57.6868 47.8661 57.9024 47.6323 58.0594 47.3601C59.2758 45.2172 60.2198 42.9308 60.8695 40.5539C60.9566 40.2518 60.9716 39.9335 60.9134 39.6246C60.8552 39.3156 60.7254 39.0246 60.5344 38.775ZM33 44.3437C30.7564 44.3437 28.5632 43.6784 26.6977 42.4319C24.8323 41.1855 23.3783 39.4138 22.5197 37.341C21.6612 35.2682 21.4365 32.9874 21.8742 30.7869C22.3119 28.5864 23.3923 26.5652 24.9788 24.9787C26.5652 23.3923 28.5865 22.3119 30.7869 21.8742C32.9874 21.4365 35.2683 21.6611 37.3411 22.5197C39.4139 23.3783 41.1855 24.8322 42.432 26.6977C43.6784 28.5632 44.3438 30.7564 44.3438 33C44.3438 36.0085 43.1486 38.8938 41.0212 41.0212C38.8939 43.1486 36.0085 44.3437 33 44.3437Z" fill="white"/>
</svg>
