<svg width="66" height="66" viewBox="0 0 66 66" fill="none" xmlns="http://www.w3.org/2000/svg">
<path d="M52.25 11H46.75V8.25C46.75 7.52065 46.4603 6.82118 45.9445 6.30546C45.4288 5.78973 44.7293 5.5 44 5.5C43.2707 5.5 42.5712 5.78973 42.0555 6.30546C41.5397 6.82118 41.25 7.52065 41.25 8.25V11H24.75V8.25C24.75 7.52065 24.4603 6.82118 23.9445 6.30546C23.4288 5.78973 22.7293 5.5 22 5.5C21.2707 5.5 20.5712 5.78973 20.0555 6.30546C19.5397 6.82118 19.25 7.52065 19.25 8.25V11H13.75C11.562 11 9.46354 11.8692 7.91637 13.4164C6.36919 14.9635 5.5 17.062 5.5 19.25V52.25C5.5 54.438 6.36919 56.5365 7.91637 58.0836C9.46354 59.6308 11.562 60.5 13.75 60.5H52.25C54.438 60.5 56.5365 59.6308 58.0836 58.0836C59.6308 56.5365 60.5 54.438 60.5 52.25V19.25C60.5 17.062 59.6308 14.9635 58.0836 13.4164C56.5365 11.8692 54.438 11 52.25 11ZM55 52.25C55 52.9793 54.7103 53.6788 54.1945 54.1945C53.6788 54.7103 52.9793 55 52.25 55H13.75C13.0207 55 12.3212 54.7103 11.8055 54.1945C11.2897 53.6788 11 52.9793 11 52.25V33H55V52.25ZM55 27.5H11V19.25C11 18.5207 11.2897 17.8212 11.8055 17.3055C12.3212 16.7897 13.0207 16.5 13.75 16.5H19.25V19.25C19.25 19.9793 19.5397 20.6788 20.0555 21.1945C20.5712 21.7103 21.2707 22 22 22C22.7293 22 23.4288 21.7103 23.9445 21.1945C24.4603 20.6788 24.75 19.9793 24.75 19.25V16.5H41.25V19.25C41.25 19.9793 41.5397 20.6788 42.0555 21.1945C42.5712 21.7103 43.2707 22 44 22C44.7293 22 45.4288 21.7103 45.9445 21.1945C46.4603 20.6788 46.75 19.9793 46.75 19.25V16.5H52.25C52.9793 16.5 53.6788 16.7897 54.1945 17.3055C54.7103 17.8212 55 18.5207 55 19.25V27.5Z" fill="white"/>
</svg>
