<svg width="42" height="50" viewBox="0 0 42 50" fill="none" xmlns="http://www.w3.org/2000/svg">
<path d="M6.5625 0.25C3.16969 0.25 0.375 3.04469 0.375 6.4375V43.5625C0.375 46.9553 3.16969 49.75 6.5625 49.75H41.625V0.25H6.5625ZM6.5625 4.375H37.5V37.375H6.5625C5.85773 37.3838 5.15985 37.515 4.5 37.7627V6.4375C4.5 5.27012 5.39512 4.375 6.5625 4.375ZM18.9375 12.625V18.8125H12.75V22.9375H18.9375V29.125H23.0625V22.9375H29.25V18.8125H23.0625V12.625H18.9375ZM6.5625 41.5H37.5V45.625H6.5625C5.39512 45.625 4.5 44.7299 4.5 43.5625C4.5 42.3951 5.39512 41.5 6.5625 41.5Z" fill="white"/>
</svg>
