<svg width="66" height="42" viewBox="0 0 66 42" fill="none" xmlns="http://www.w3.org/2000/svg">
<path d="M33 29.25C35.188 29.25 37.2865 28.3808 38.8336 26.8336C40.3808 25.2865 41.25 23.188 41.25 21C41.25 18.812 40.3808 16.7135 38.8336 15.1664C37.2865 13.6192 35.188 12.75 33 12.75C30.812 12.75 28.7135 13.6192 27.1664 15.1664C25.6192 16.7135 24.75 18.812 24.75 21C24.75 23.188 25.6192 25.2865 27.1664 26.8336C28.7135 28.3808 30.812 29.25 33 29.25Z" fill="#FFFBFB"/>
<path d="M0 4.5C0 3.40598 0.434597 2.35677 1.20818 1.58318C1.98177 0.809597 3.03098 0.375 4.125 0.375H61.875C62.969 0.375 64.0182 0.809597 64.7918 1.58318C65.5654 2.35677 66 3.40598 66 4.5V37.5C66 38.594 65.5654 39.6432 64.7918 40.4168C64.0182 41.1904 62.969 41.625 61.875 41.625H4.125C3.03098 41.625 1.98177 41.1904 1.20818 40.4168C0.434597 39.6432 0 38.594 0 37.5V4.5ZM12.375 4.5C12.375 6.68804 11.5058 8.78646 9.95863 10.3336C8.41146 11.8808 6.31304 12.75 4.125 12.75V29.25C6.31304 29.25 8.41146 30.1192 9.95863 31.6664C11.5058 33.2135 12.375 35.312 12.375 37.5H53.625C53.625 35.312 54.4942 33.2135 56.0414 31.6664C57.5885 30.1192 59.687 29.25 61.875 29.25V12.75C59.687 12.75 57.5885 11.8808 56.0414 10.3336C54.4942 8.78646 53.625 6.68804 53.625 4.5H12.375Z" fill="#FFFBFB"/>
</svg>
