<svg width="25" height="28" viewBox="0 0 25 28" fill="none" xmlns="http://www.w3.org/2000/svg">
<path d="M12.5 11.3333C14.0346 11.3333 15.1666 10.2027 15.1666 8.66667C15.1666 7.13067 14.0346 6 12.5 6C10.9666 6 9.83329 7.13067 9.83329 8.66667C9.83329 10.2027 10.9666 11.3333 12.5 11.3333ZM12.5 12.6667C9.55463 12.6667 7.16663 14.816 7.16663 17.4667V17.9813H17.8333V17.4667C17.8333 14.816 15.4453 12.6667 12.5 12.6667Z" fill="white"/>
<path d="M21.8333 0.666992H3.16667C1.696 0.666992 0.5 1.86299 0.5 3.33366V20.667C0.5 22.1377 1.696 23.3337 3.16667 23.3337H8.5L12.5 27.3337L16.5 23.3337H21.8333C23.304 23.3337 24.5 22.1377 24.5 20.667V3.33366C24.5 1.86299 23.304 0.666992 21.8333 0.666992ZM15.1667 20.667L12.5 23.3337L9.83333 20.667H3.16667V3.33366H21.8333L21.836 20.667H15.1667Z" fill="white"/>
</svg>
