<svg width="40" height="54" viewBox="0 0 40 54" fill="none" xmlns="http://www.w3.org/2000/svg">
<path d="M17.8682 19.9178C18.178 19.608 18.3521 19.1878 18.3521 18.7496C18.3521 18.3114 18.178 17.8912 17.8682 17.5814C17.5584 17.2716 17.1382 17.0975 16.7 17.0975C16.2619 17.0975 15.8416 17.2716 15.5318 17.5814L10.8722 22.241L9.56211 21.0464C9.2366 20.7682 8.81567 20.6274 8.38826 20.6538C7.96086 20.6802 7.56047 20.8718 7.27169 21.188C6.98292 21.5042 6.82838 21.9202 6.84074 22.3483C6.8531 22.7763 7.03138 23.1828 7.33791 23.4818L9.81291 25.7423C10.1265 26.0278 10.538 26.1816 10.962 26.1718C11.386 26.162 11.7899 25.9893 12.0899 25.6895L17.8649 19.9145L17.8682 19.9178ZM17.8682 34.0814C18.0219 34.2347 18.1438 34.4168 18.227 34.6172C18.3101 34.8177 18.353 35.0326 18.353 35.2496C18.353 35.4666 18.3101 35.6815 18.227 35.882C18.1438 36.0825 18.0219 36.2645 17.8682 36.4178L12.0932 42.1928C11.7926 42.4931 11.3878 42.6658 10.963 42.675C10.5382 42.6842 10.1263 42.5292 9.81291 42.2423L7.33791 39.9818C7.03138 39.6828 6.8531 39.2763 6.84074 38.8483C6.82838 38.4202 6.98292 38.0042 7.27169 37.688C7.56047 37.3718 7.96086 37.1802 8.38826 37.1538C8.81567 37.1274 9.2366 37.2682 9.56211 37.5464L10.8722 38.7443L15.5318 34.0814C15.6851 33.9277 15.8672 33.8058 16.0676 33.7227C16.2681 33.6395 16.483 33.5967 16.7 33.5967C16.917 33.5967 17.1319 33.6395 17.3324 33.7227C17.5329 33.8058 17.7149 33.9277 17.8682 34.0814ZM23.3 36.0746C22.8624 36.0746 22.4427 36.2484 22.1333 36.5579C21.8238 36.8673 21.65 37.287 21.65 37.7246C21.65 38.1622 21.8238 38.5819 22.1333 38.8913C22.4427 39.2008 22.8624 39.3746 23.3 39.3746H31.55C31.9876 39.3746 32.4073 39.2008 32.7167 38.8913C33.0262 38.5819 33.2 38.1622 33.2 37.7246C33.2 37.287 33.0262 36.8673 32.7167 36.5579C32.4073 36.2484 31.9876 36.0746 31.55 36.0746H23.3ZM21.65 21.2246C21.65 20.787 21.8238 20.3673 22.1333 20.0579C22.4427 19.7484 22.8624 19.5746 23.3 19.5746H31.55C31.9876 19.5746 32.4073 19.7484 32.7167 20.0579C33.0262 20.3673 33.2 20.787 33.2 21.2246C33.2 21.6622 33.0262 22.0819 32.7167 22.3913C32.4073 22.7008 31.9876 22.8746 31.55 22.8746H23.3C22.8624 22.8746 22.4427 22.7008 22.1333 22.3913C21.8238 22.0819 21.65 21.6622 21.65 21.2246ZM15.05 0.59961C14.0259 0.599073 13.0269 0.916171 12.1906 1.5072C11.3543 2.09823 10.7219 2.9341 10.3805 3.89961H5.15001C3.83719 3.89961 2.57814 4.42113 1.64983 5.34943C0.721528 6.27774 0.200012 7.53679 0.200012 8.84961V48.4496C0.200012 49.7624 0.721528 51.0215 1.64983 51.9498C2.57814 52.8781 3.83719 53.3996 5.15001 53.3996H34.85C36.1628 53.3996 37.4219 52.8781 38.3502 51.9498C39.2785 51.0215 39.8 49.7624 39.8 48.4496V8.84961C39.8 7.53679 39.2785 6.27774 38.3502 5.34943C37.4219 4.42113 36.1628 3.89961 34.85 3.89961H29.6195C29.2782 2.9341 28.6457 2.09823 27.8094 1.5072C26.9731 0.916171 25.9741 0.599073 24.95 0.59961H15.05ZM13.4 5.54961C13.4 5.112 13.5738 4.69232 13.8833 4.38288C14.1927 4.07345 14.6124 3.89961 15.05 3.89961H24.95C25.3876 3.89961 25.8073 4.07345 26.1167 4.38288C26.4262 4.69232 26.6 5.112 26.6 5.54961C26.6 5.98722 26.4262 6.4069 26.1167 6.71634C25.8073 7.02577 25.3876 7.19961 24.95 7.19961H15.05C14.6124 7.19961 14.1927 7.02577 13.8833 6.71634C13.5738 6.4069 13.4 5.98722 13.4 5.54961ZM5.15001 7.19961H10.3805C10.7219 8.16512 11.3543 9.00099 12.1906 9.59202C13.0269 10.183 14.0259 10.5001 15.05 10.4996H24.95C25.9741 10.5001 26.9731 10.183 27.8094 9.59202C28.6457 9.00099 29.2782 8.16512 29.6195 7.19961H34.85C35.2876 7.19961 35.7073 7.37345 36.0167 7.68288C36.3262 7.99232 36.5 8.412 36.5 8.84961V48.4496C36.5 48.8872 36.3262 49.3069 36.0167 49.6163C35.7073 49.9258 35.2876 50.0996 34.85 50.0996H5.15001C4.7124 50.0996 4.29272 49.9258 3.98329 49.6163C3.67385 49.3069 3.50001 48.8872 3.50001 48.4496V8.84961C3.50001 8.412 3.67385 7.99232 3.98329 7.68288C4.29272 7.37345 4.7124 7.19961 5.15001 7.19961Z" fill="white"/>
</svg>
