<svg width="54" height="51" viewBox="0 0 54 51" fill="none" xmlns="http://www.w3.org/2000/svg">
<path d="M5.54999 0.900391C5.11238 0.900391 4.6927 1.07423 4.38326 1.38366C4.07383 1.6931 3.89999 2.11278 3.89999 2.55039C3.89999 2.988 4.07383 3.40768 4.38326 3.71712C4.6927 4.02655 5.11238 4.20039 5.54999 4.20039H8.02499L0.854091 21.4099C0.676488 21.8323 0.593152 22.2884 0.609891 22.7464C0.714205 25.2999 1.80198 27.7142 3.64564 29.4841C5.48929 31.254 7.94596 32.2423 10.5016 32.2423C13.0573 32.2423 15.514 31.254 17.3576 29.4841C19.2013 27.7142 20.2891 25.2999 20.3934 22.7464C20.4091 22.2882 20.3246 21.8321 20.1459 21.4099L12.975 4.20039H25.35V37.2004H13.8C12.0496 37.2004 10.3708 37.8957 9.13309 39.1335C7.89535 40.3712 7.19999 42.05 7.19999 43.8004C7.19999 45.5508 7.89535 47.2296 9.13309 48.4673C10.3708 49.705 12.0496 50.4004 13.8 50.4004H40.2C41.9504 50.4004 43.6292 49.705 44.8669 48.4673C46.1046 47.2296 46.8 45.5508 46.8 43.8004C46.8 42.05 46.1046 40.3712 44.8669 39.1335C43.6292 37.8957 41.9504 37.2004 40.2 37.2004H28.65V4.20039H41.025L33.8541 21.4099C33.6764 21.8323 33.593 22.2884 33.6099 22.7464C33.7142 25.2999 34.802 27.7142 36.6456 29.4841C38.4893 31.254 40.946 32.2423 43.5016 32.2423C46.0573 32.2423 48.514 31.254 50.3576 29.4841C52.2013 27.7142 53.2891 25.2999 53.3934 22.7464C53.4092 22.2882 53.3247 21.8321 53.1459 21.4099L45.975 4.20039H48.45C48.8876 4.20039 49.3073 4.02655 49.6167 3.71712C49.9262 3.40768 50.1 2.988 50.1 2.55039C50.1 2.11278 49.9262 1.6931 49.6167 1.38366C49.3073 1.07423 48.8876 0.900391 48.45 0.900391H5.54999ZM10.5 28.9504C9.03665 28.9502 7.61483 28.4639 6.45785 27.568C5.30087 26.672 4.47427 25.4171 4.10789 24.0004H16.8921C16.5257 25.4171 15.6991 26.672 14.5421 27.568C13.3851 28.4639 11.9633 28.9502 10.5 28.9504ZM10.5 6.84039L16.275 20.7004H4.72499L10.5 6.84039ZM13.8 40.5004H40.2C41.0752 40.5004 41.9146 40.8481 42.5334 41.4669C43.1523 42.0858 43.5 42.9252 43.5 43.8004C43.5 44.6756 43.1523 45.515 42.5334 46.1338C41.9146 46.7527 41.0752 47.1004 40.2 47.1004H13.8C12.9248 47.1004 12.0854 46.7527 11.4665 46.1338C10.8477 45.515 10.5 44.6756 10.5 43.8004C10.5 42.9252 10.8477 42.0858 11.4665 41.4669C12.0854 40.8481 12.9248 40.5004 13.8 40.5004ZM49.275 20.7004H37.725L43.5 6.84039L49.275 20.7004ZM37.1079 24.0004H49.8921C49.5274 25.4186 48.7015 26.6753 47.5443 27.5726C46.3871 28.4699 44.9643 28.9569 43.5 28.9569C42.0356 28.9569 40.6129 28.4699 39.4557 27.5726C38.2985 26.6753 37.4725 25.4186 37.1079 24.0004Z" fill="white"/>
</svg>
