<svg width="67" height="66" viewBox="0 0 67 66" fill="none" xmlns="http://www.w3.org/2000/svg">
<path d="M22.5 60.5C19.475 60.5 16.8854 59.4229 14.7313 57.2688C12.5771 55.1146 11.5 52.525 11.5 49.5V22C11.5 18.975 12.5771 16.3854 14.7313 14.2313C16.8854 12.0771 19.475 11 22.5 11H25.25V8.25C25.25 7.47083 25.514 6.81725 26.042 6.28925C26.5682 5.76308 27.2208 5.5 28 5.5C28.7792 5.5 29.4328 5.76308 29.9608 6.28925C30.4869 6.81725 30.75 7.47083 30.75 8.25V11H36.25V8.25C36.25 7.47083 36.514 6.81725 37.042 6.28925C37.5682 5.76308 38.2208 5.5 39 5.5C39.7792 5.5 40.4328 5.76308 40.9608 6.28925C41.4869 6.81725 41.75 7.47083 41.75 8.25V11H44.5C47.525 11 50.1146 12.0771 52.2688 14.2313C54.4229 16.3854 55.5 18.975 55.5 22V49.5C55.5 52.525 54.4229 55.1146 52.2688 57.2688C50.1146 59.4229 47.525 60.5 44.5 60.5H22.5ZM22.5 55H44.5C46.0125 55 47.3078 54.4619 48.3857 53.3857C49.4619 52.3078 50 51.0125 50 49.5V22C50 20.4875 49.4619 19.1932 48.3857 18.117C47.3078 17.039 46.0125 16.5 44.5 16.5H22.5C20.9875 16.5 19.6932 17.039 18.617 18.117C17.539 19.1932 17 20.4875 17 22V49.5C17 51.0125 17.539 52.3078 18.617 53.3857C19.6932 54.4619 20.9875 55 22.5 55ZM25.25 27.5H41.75C42.5292 27.5 43.1828 27.236 43.7108 26.708C44.2369 26.1818 44.5 25.5292 44.5 24.75C44.5 23.9708 44.2369 23.3172 43.7108 22.7892C43.1828 22.2631 42.5292 22 41.75 22H25.25C24.4708 22 23.8182 22.2631 23.292 22.7892C22.764 23.3172 22.5 23.9708 22.5 24.75C22.5 25.5292 22.764 26.1818 23.292 26.708C23.8182 27.236 24.4708 27.5 25.25 27.5ZM33.5 49.5C35.425 49.5 37.0521 48.8473 38.3812 47.542C39.7104 46.2348 40.375 44.6417 40.375 42.7625C40.375 41.5708 40.1119 40.5396 39.5858 39.6688C39.0578 38.7979 37.9917 37.4458 36.3875 35.6125L34.5312 33.4813C34.2563 33.1604 33.9125 33 33.5 33C33.0875 33 32.7437 33.1604 32.4688 33.4813L30.6125 35.6125C29.0083 37.4917 27.9432 38.8557 27.417 39.7045C26.889 40.5515 26.625 41.5708 26.625 42.7625C26.625 44.6417 27.2896 46.2348 28.6188 47.542C29.9479 48.8473 31.575 49.5 33.5 49.5ZM17 16.5V55V16.5Z" fill="white"/>
</svg>
