<svg width="67" height="60" viewBox="0 0 67 60" fill="none" xmlns="http://www.w3.org/2000/svg">
<g clip-path="url(#clip0_1081_20273)">
<path d="M49.6275 10L43 16.6275V17.1225L49.6275 23.75H59.5V29.25H47.3725L43 24.8775V32H40.25C38.7913 32 37.3924 31.4205 36.3609 30.3891C35.3295 29.3576 34.75 27.9587 34.75 26.5V19.625H26.115C25.8675 20.6425 25.455 21.605 24.905 22.5125L40.745 51.25H54C55.4587 51.25 56.8576 51.8295 57.8891 52.8609C58.9205 53.8924 59.5 55.2913 59.5 56.75V59.5H4.49999V56.75C4.49999 55.2913 5.07945 53.8924 6.1109 52.8609C7.14235 51.8295 8.5413 51.25 9.99999 51.25H28.1775L15.28 27.875C12.8718 27.8343 10.5434 27.0054 8.65112 25.5155C6.75883 24.0255 5.40698 21.9564 4.80249 19.625C4.44335 18.2238 4.36411 16.7654 4.56931 15.3335C4.77451 13.9016 5.26012 12.5242 5.99833 11.2803C6.73655 10.0363 7.71288 8.9501 8.87143 8.08394C10.03 7.21777 11.348 6.58862 12.75 6.2325C18.6075 4.72 24.6025 8.24 26.115 14.125H34.75V7.25C34.75 5.79131 35.3295 4.39236 36.3609 3.36091C37.3924 2.32946 38.7913 1.75 40.25 1.75H43V8.8725L47.3725 4.5H59.5V10H49.6275ZM15.5 11.375C14.0413 11.375 12.6424 11.9545 11.6109 12.9859C10.5795 14.0174 9.99999 15.4163 9.99999 16.875C9.99999 18.3337 10.5795 19.7326 11.6109 20.7641C12.6424 21.7955 14.0413 22.375 15.5 22.375C16.9587 22.375 18.3576 21.7955 19.3891 20.7641C20.4205 19.7326 21 18.3337 21 16.875C21 15.4163 20.4205 14.0174 19.3891 12.9859C18.3576 11.9545 16.9587 11.375 15.5 11.375Z" fill="white"/>
</g>
<defs>
<clipPath id="clip0_1081_20273">
<rect width="70" height="60" fill="white" transform="translate(-1)"/>
</clipPath>
</defs>
</svg>
