<svg width="67" height="65" viewBox="0 0 67 65" fill="none" xmlns="http://www.w3.org/2000/svg">
<path d="M65.033 0L62.2323 2.79773H58.8833L56.8532 4.82045L61.684 9.66016L63.6993 7.61818V4.26476L66.5 1.46703L65.033 0ZM54.497 6.23561C54.1562 6.29785 53.7117 6.37046 53.2375 6.48605C52.2298 6.72759 51.0888 7.24031 50.8813 7.44036C50.6887 7.63892 50.17 8.78143 49.9329 9.80835C49.6959 10.8012 49.5773 11.6755 49.5773 11.6755L49.4736 12.7424L48.4066 12.8461C48.4066 12.8461 47.5472 12.9647 46.5395 13.2018C45.517 13.4389 44.376 13.9427 44.1834 14.1502C43.9759 14.3428 43.4721 15.4986 43.2202 16.5063C42.9979 17.514 42.8793 18.3882 42.8793 18.3882L42.746 19.5737H41.5309C41.5309 19.5737 40.4788 19.5589 39.4266 19.7515C39.0858 19.8108 38.7598 19.8849 38.4783 19.9738L46.5247 28.0203C46.6136 27.7535 46.7025 27.4275 46.7618 27.0867C46.9396 26.0198 46.9396 24.9528 46.9396 24.9528L46.9248 23.7525L48.1103 23.6192C48.1103 23.6192 48.9846 23.5006 49.9922 23.2783C51.0147 23.0412 52.1557 22.5226 52.3335 22.33C52.5558 22.1225 53.0596 20.9815 53.3116 19.959C53.519 18.9662 53.6524 18.0919 53.6524 18.0919L53.7709 17.0249L54.823 16.9212C54.823 16.9212 55.6973 16.8027 56.705 16.5656C57.7126 16.3285 58.8537 15.8098 59.0611 15.6172C59.2389 15.4246 59.7724 14.2687 60.0095 13.2611C60.1281 12.7869 60.2021 12.3423 60.2614 12.0015L54.497 6.23561ZM36.5222 21.7965L33.3807 24.938L41.5605 33.1178L44.702 29.9763L36.5222 21.7965ZM28.6981 26.2717L26.6828 28.3018L27.4089 29.0279L38.1967 39.8158L40.2268 37.8004V35.5629L34.418 29.7392L30.9357 26.2717H28.6981ZM19.7625 31.8582L14.9465 36.6742L29.8243 51.552L34.6403 46.736L19.7625 31.8582ZM26.4753 31.8582L25.0083 33.3253L33.1584 41.5051L34.6255 40.038L26.4753 31.8582ZM12.1903 40.6604L10.5603 42.7498L25.6455 54.486L27.2903 52.3966L12.1903 40.6604ZM8.84132 44.0094L7.20684 46.1136L22.2965 57.8498L23.9265 55.7308L8.84132 44.0094ZM5.49827 47.3732L3.85342 49.4626L18.9475 61.1988L20.5776 59.0946L5.49827 47.3732ZM2.13448 50.7222L0.5 52.8116L15.5985 64.5478L17.2286 62.4584L2.13448 50.7222ZM4.40911 57.998L2.3123 62.1917L4.3039 64.1773L8.49457 62.0879L4.40911 57.998Z" fill="white"/>
</svg>

